{
    "asset" : {
        "generator" : "Khronos glTF Blender I/O v1.6.16",
        "version" : "2.0"
    },
    "scene" : 0,
    "scenes" : [
        {
            "name" : "Scene",
            "nodes" : [
                0
            ]
        }
    ],
    "nodes" : [
        {
            "mesh" : 0,
            "name" : "Cerberus00_Fixed_Mesh",
            "rotation" : [
                0.7071068286895752,
                0,
                0,
                0.7071067094802856
            ]
        }
    ],
    "materials" : [
        {
            "doubleSided" : true,
            "name" : "08_-_Default",
            "normalTexture" : {
                "index" : 0
            },
            "pbrMetallicRoughness" : {
                "baseColorTexture" : {
                    "index" : 1
                },
                "metallicRoughnessTexture" : {
                    "index" : 2
                }
            }
        }
    ],
    "meshes" : [
        {
            "name" : "Cerberus00_Fixed_Mesh",
            "primitives" : [
                {
                    "attributes" : {
                        "POSITION" : 0,
                        "NORMAL" : 1,
                        "TEXCOORD_0" : 2
                    },
                    "indices" : 3,
                    "material" : 0
                }
            ]
        }
    ],
    "textures" : [
        {
            "sampler" : 0,
            "source" : 0
        },
        {
            "sampler" : 0,
            "source" : 1
        },
        {
            "sampler" : 0,
            "source" : 2
        }
    ],
    "images" : [
        {
            "mimeType" : "image/png",
            "name" : "Cerberus_N",
            "uri" : "Cerberus_N.png"
        },
        {
            "mimeType" : "image/png",
            "name" : "Cerberus_A",
            "uri" : "Cerberus_A.png"
        },
        {
            "mimeType" : "image/png",
            "name" : "Cerberus_M-Cerberus_R",
            "uri" : "Cerberus_M-Cerberus_R.png"
        }
    ],
    "accessors" : [
        {
            "bufferView" : 0,
            "componentType" : 5126,
            "count" : 28027,
            "max" : [
                0.1252029985189438,
                0.3654879927635193,
                0.47208699584007263
            ],
            "min" : [
                -0.19993099570274353,
                -1.1955729722976685,
                -0.1877879947423935
            ],
            "type" : "VEC3"
        },
        {
            "bufferView" : 1,
            "componentType" : 5126,
            "count" : 28027,
            "type" : "VEC3"
        },
        {
            "bufferView" : 2,
            "componentType" : 5126,
            "count" : 28027,
            "type" : "VEC2"
        },
        {
            "bufferView" : 3,
            "componentType" : 5123,
            "count" : 100623,
            "type" : "SCALAR"
        }
    ],
    "bufferViews" : [
        {
            "buffer" : 0,
            "byteLength" : 336324,
            "byteOffset" : 0
        },
        {
            "buffer" : 0,
            "byteLength" : 336324,
            "byteOffset" : 336324
        },
        {
            "buffer" : 0,
            "byteLength" : 224216,
            "byteOffset" : 672648
        },
        {
            "buffer" : 0,
            "byteLength" : 201246,
            "byteOffset" : 896864
        }
    ],
    "samplers" : [
        {
            "magFilter" : 9729,
            "minFilter" : 9987
        }
    ],
    "buffers" : [
        {
            "byteLength" : 1098112,
            "uri" : "Cerberus.bin"
        }
    ]
}
